<svg width="800" height="519" viewBox="0 0 800 519" fill="none" xmlns="http://www.w3.org/2000/svg">
<path d="M582.442 187.527L724.26 261.017H800V304.613H724.26L582.442 378.415V329.214L681.87 282.504L582.442 236.105V187.527Z" fill="#89023E"/>
<path d="M382.058 216.527C377.071 207.392 370.213 200.438 361.486 195.663C352.759 190.888 342.577 188.501 330.941 188.501C318.058 188.501 306.629 191.407 296.655 197.22C286.681 203.033 278.889 211.337 273.278 222.132C267.668 232.927 264.863 245.383 264.863 259.5C264.863 274.032 267.668 286.695 273.278 297.491C279.097 308.286 287.097 316.59 297.278 322.403C307.46 328.215 319.304 331.122 332.811 331.122C349.434 331.122 363.045 326.762 373.642 318.043C384.239 309.116 391.201 296.764 394.525 280.986H319.72V247.667H437.538V285.657C434.629 300.812 428.395 314.825 418.837 327.696C409.278 340.568 396.915 350.948 381.746 358.836C366.785 366.518 349.954 370.358 331.252 370.358C310.265 370.358 291.252 365.687 274.213 356.345C257.382 346.796 244.084 333.613 234.317 316.797C224.759 299.982 219.98 280.883 219.98 259.5C219.98 238.117 224.759 219.018 234.317 202.202C244.084 185.179 257.382 171.996 274.213 162.654C291.252 153.105 310.162 148.33 330.941 148.33C355.46 148.33 376.759 154.35 394.837 166.391C412.915 178.224 425.382 194.936 432.239 216.527H382.058ZM540.577 171.893L484.472 406.065H456.004L512.108 171.893H540.577Z" fill="#EBEBEB"/>
<path d="M40.2078 280.26L172.675 323.856V370.255L0 306.418V253.48L172.675 189.954V236.664L40.2078 280.26Z" fill="#89023E"/>
</svg>
