<svg width="479" height="311" viewBox="0 0 479 311" fill="none" xmlns="http://www.w3.org/2000/svg">
<path d="M348.737 112.372L433.65 156.409H479V182.533H433.65L348.737 226.757V197.275L408.27 169.285L348.737 141.481V112.372Z" fill="#89023E"/>
<path d="M228.757 129.749C225.771 124.276 221.665 120.108 216.44 117.247C211.214 114.386 205.118 112.955 198.151 112.955C190.437 112.955 183.594 114.697 177.622 118.18C171.65 121.663 166.985 126.639 163.625 133.108C160.266 139.577 158.587 147.041 158.587 155.5C158.587 164.208 160.266 171.796 163.625 178.265C167.109 184.734 171.899 189.71 177.995 193.193C184.092 196.676 191.184 198.418 199.271 198.418C209.224 198.418 217.373 195.806 223.718 190.581C230.063 185.232 234.231 177.83 236.222 168.375H191.432V148.409H261.976V171.174C260.234 180.256 256.502 188.653 250.779 196.365C245.055 204.078 237.653 210.298 228.57 215.025C219.613 219.628 209.535 221.93 198.337 221.93C185.771 221.93 174.387 219.131 164.185 213.533C154.108 207.81 146.145 199.911 140.298 189.834C134.574 179.758 131.713 168.313 131.713 155.5C131.713 142.687 134.574 131.242 140.298 121.166C146.145 110.965 154.108 103.065 164.185 97.4674C174.387 91.745 185.709 88.8838 198.151 88.8838C212.832 88.8838 225.584 92.4914 236.409 99.7066C247.233 106.797 254.698 116.812 258.803 129.749H228.757ZM323.67 103.003L290.077 243.326H273.033L306.625 103.003H323.67Z" fill="#EBEBEB"/>
<path d="M24.0744 167.94L103.389 194.064V221.868L0 183.615V151.893L103.389 113.826V141.816L24.0744 167.94Z" fill="#89023E"/>
</svg>
