<svg width="150" height="23" viewBox="0 0 150 23" fill="none" xmlns="http://www.w3.org/2000/svg">
<g clip-path="url(#clip0_140_12)">
<path d="M130.369 3.94092L143.166 10.5784H150V14.5159H143.166L130.369 21.1816V16.7378L139.341 12.5191L130.369 8.32843V3.94092Z" fill="#89023E"/>
<path d="M15.7632 6.9001C15.3132 6.0751 14.6944 5.44697 13.9069 5.01572C13.1194 4.58447 12.2007 4.36885 11.1507 4.36885C9.98817 4.36885 8.95692 4.63135 8.05692 5.15635C7.15692 5.68135 6.45379 6.43135 5.94754 7.40635C5.44129 8.38135 5.18817 9.50635 5.18817 10.7813C5.18817 12.0938 5.44129 13.2376 5.94754 14.2126C6.47254 15.1876 7.19442 15.9376 8.11317 16.4626C9.03192 16.9876 10.1007 17.2501 11.3194 17.2501C12.8194 17.2501 14.0475 16.8563 15.0038 16.0688C15.96 15.2626 16.5882 14.147 16.8882 12.722H10.1382V9.7126H20.7694V13.1438C20.5069 14.5126 19.9444 15.7782 19.0819 16.9407C18.2194 18.1032 17.1038 19.0407 15.735 19.7532C14.385 20.447 12.8663 20.7938 11.1788 20.7938C9.28505 20.7938 7.56942 20.372 6.03192 19.5282C4.51318 18.6657 3.31318 17.4751 2.43193 15.9563C1.56943 14.4376 1.13818 12.7126 1.13818 10.7813C1.13818 8.8501 1.56943 7.1251 2.43193 5.60635C3.31318 4.06885 4.51318 2.87822 6.03192 2.03447C7.56942 1.17197 9.27567 0.740723 11.1507 0.740723C13.3632 0.740723 15.285 1.28447 16.9163 2.37197C18.5475 3.44072 19.6725 4.9501 20.2913 6.9001H15.7632ZM38.3919 5.04385V20.6251H34.4263V18.6563C33.9201 19.3313 33.2544 19.8657 32.4294 20.2595C31.6232 20.6345 30.7419 20.822 29.7857 20.822C28.5669 20.822 27.4888 20.5688 26.5513 20.0626C25.6138 19.5376 24.8732 18.7782 24.3294 17.7845C23.8044 16.772 23.5419 15.572 23.5419 14.1845V5.04385H27.4794V13.622C27.4794 14.8595 27.7888 15.8157 28.4076 16.4907C29.0263 17.147 29.8701 17.4751 30.9388 17.4751C32.0263 17.4751 32.8794 17.147 33.4982 16.4907C34.1169 15.8157 34.4263 14.8595 34.4263 13.622V5.04385H38.3919ZM48.2395 20.8782C46.9645 20.8782 45.8207 20.6532 44.8082 20.2032C43.7957 19.7345 42.9894 19.1063 42.3894 18.3188C41.8082 17.5313 41.4894 16.6595 41.4332 15.7032H45.3988C45.4738 16.3032 45.7644 16.8001 46.2707 17.1938C46.7957 17.5876 47.4427 17.7845 48.2114 17.7845C48.9614 17.7845 49.5427 17.6345 49.9552 17.3345C50.3864 17.0345 50.602 16.6501 50.602 16.1813C50.602 15.6751 50.3395 15.3001 49.8145 15.0563C49.3083 14.7938 48.4927 14.5126 47.3677 14.2126C46.2051 13.9313 45.2488 13.6407 44.4988 13.3407C43.7676 13.0407 43.1301 12.5813 42.5863 11.9626C42.0613 11.3438 41.7988 10.5095 41.7988 9.45947C41.7988 8.59697 42.0426 7.80947 42.5301 7.09697C43.0363 6.38447 43.7488 5.82197 44.6676 5.40947C45.6051 4.99697 46.7019 4.79072 47.9583 4.79072C49.8145 4.79072 51.2958 5.25947 52.402 6.19697C53.5083 7.11572 54.1177 8.3626 54.2302 9.9376H50.4614C50.4052 9.31885 50.1427 8.83135 49.6739 8.4751C49.2239 8.1001 48.6145 7.9126 47.8458 7.9126C47.1333 7.9126 46.5801 8.04385 46.1863 8.30635C45.8113 8.56885 45.6238 8.93447 45.6238 9.40322C45.6238 9.92822 45.8863 10.3313 46.4113 10.6126C46.9364 10.8751 47.752 11.147 48.8583 11.4282C49.9833 11.7095 50.9114 12.0001 51.6427 12.3001C52.3739 12.6001 53.002 13.0688 53.527 13.7063C54.0708 14.3251 54.352 15.1501 54.3708 16.1813C54.3708 17.0813 54.1177 17.8876 53.6114 18.6001C53.1239 19.3126 52.4114 19.8751 51.4739 20.2876C50.5552 20.6813 49.477 20.8782 48.2395 20.8782ZM62.1872 8.27822V15.8157C62.1872 16.3407 62.3091 16.7251 62.5528 16.9688C62.8153 17.1938 63.2466 17.3063 63.8466 17.3063H65.6747V20.6251H63.1997C59.8809 20.6251 58.2216 19.0126 58.2216 15.7876V8.27822H56.3653V5.04385H58.2216V1.19072H62.1872V5.04385H65.6747V8.27822H62.1872ZM67.4944 12.7782C67.4944 11.2032 67.8037 9.80635 68.4225 8.5876C69.06 7.36885 69.9131 6.43135 70.9819 5.7751C72.0694 5.11885 73.2787 4.79072 74.61 4.79072C75.7725 4.79072 76.785 5.0251 77.6475 5.49385C78.5287 5.9626 79.2319 6.55322 79.7569 7.26572V5.04385H83.7225V20.6251H79.7569V18.347C79.2506 19.0782 78.5475 19.6876 77.6475 20.1751C76.7662 20.6438 75.7444 20.8782 74.5819 20.8782C73.2694 20.8782 72.0694 20.5407 70.9819 19.8657C69.9131 19.1907 69.06 18.2438 68.4225 17.0251C67.8037 15.7876 67.4944 14.372 67.4944 12.7782ZM79.7569 12.8345C79.7569 11.8782 79.5694 11.0626 79.1944 10.3876C78.8194 9.69385 78.3131 9.16885 77.6756 8.8126C77.0381 8.4376 76.3537 8.2501 75.6225 8.2501C74.8912 8.2501 74.2162 8.42822 73.5975 8.78447C72.9787 9.14072 72.4725 9.66572 72.0787 10.3595C71.7037 11.0345 71.5162 11.8407 71.5162 12.7782C71.5162 13.7157 71.7037 14.5407 72.0787 15.2532C72.4725 15.947 72.9787 16.4813 73.5975 16.8563C74.235 17.2313 74.91 17.4188 75.6225 17.4188C76.3537 17.4188 77.0381 17.2407 77.6756 16.8845C78.3131 16.5095 78.8194 15.9845 79.1944 15.3095C79.5694 14.6157 79.7569 13.7907 79.7569 12.8345Z" fill="#EBEBEB"/>
<path d="M128.968 2.3501L124.159 22.4426H121.718L126.528 2.3501H128.968Z" fill="#EBEBEB"/>
<path d="M112.626 20.878C111.126 20.878 109.776 20.5499 108.576 19.8937C107.376 19.2187 106.429 18.2718 105.736 17.053C105.061 15.8343 104.723 14.428 104.723 12.8343C104.723 11.2405 105.07 9.83428 105.764 8.61553C106.476 7.39678 107.442 6.45928 108.661 5.80303C109.879 5.12803 111.239 4.79053 112.739 4.79053C114.239 4.79053 115.598 5.12803 116.817 5.80303C118.036 6.45928 118.992 7.39678 119.686 8.61553C120.398 9.83428 120.754 11.2405 120.754 12.8343C120.754 14.428 120.389 15.8343 119.657 17.053C118.945 18.2718 117.97 19.2187 116.732 19.8937C115.514 20.5499 114.145 20.878 112.626 20.878ZM112.626 17.4468C113.339 17.4468 114.004 17.278 114.623 16.9405C115.261 16.5843 115.767 16.0593 116.142 15.3655C116.517 14.6718 116.704 13.828 116.704 12.8343C116.704 11.353 116.311 10.2187 115.523 9.43115C114.754 8.6249 113.807 8.22178 112.682 8.22178C111.557 8.22178 110.611 8.6249 109.842 9.43115C109.092 10.2187 108.717 11.353 108.717 12.8343C108.717 14.3155 109.082 15.4593 109.814 16.2655C110.564 17.053 111.501 17.4468 112.626 17.4468Z" fill="#EBEBEB"/>
<path d="M90.8156 12.6562L102.769 16.5938V20.7844L87.1875 15.0188V10.2375L102.769 4.5V8.71875L90.8156 12.6562Z" fill="#89023E"/>
</g>
<defs>
<clipPath id="clip0_140_12">
<rect width="150" height="22.5" fill="white"/>
</clipPath>
</defs>
</svg>
